# xmcd
#
# Track frame offsets:
#	150
#	13604
#	26002
#	38215
#	48693
#	58770
#	67972
#	81414
#	94006
#	104948
#	115408
#	124799
#	136118
#	146363
#	156718
#	165885
#	177969
#	184489
#	198098
#	203861
#	215137
#	226657
#	238248
#	250773
#	263229
#	276267
#	289425
#	303870
#	313922
#
# Disc length: 4483 seconds
#
# Revision: 1
# Processed by: cddbd v1.5.2PL0 Copyright (c) Steve Scherf et al.
# Submitted via: audiograbber 1.83.01
#
DISCID=bb11811d
DTITLE=Reha-Wieden-Brooklyn  - 60th Thugster for live ...
DYEAR=1960
DGENRE=60th
TTITLE0=Venus
TTITLE1=Hold tight!
TTITLE2=The Wanderer
TTITLE3=Do wah diddy diddy
TTITLE4=Wooly Bully
TTITLE5=Barbara Ann
TTITLE6=Ob-La-Di, Ob-La-Da
TTITLE7=Mony Mony
TTITLE8=Sweets for My Sweet
TTITLE9=Lets Dance
TTITLE10=Sheila
TTITLE11=Yesterday Man
TTITLE12=Da Doo Ron Ron
TTITLE13=Yummy Yummy
TTITLE14=Bend Me, Shape Me
TTITLE15=I'm a believer
TTITLE16=Sucu Sucu
TTITLE17=Hang On Sloopy
TTITLE18=Long Tall Sally
TTITLE19=Bend It
TTITLE20=To whom it concerns
TTITLE21=Pretty Belinda
TTITLE22=Mighty Quinn
TTITLE23=Sugar, Sugar
TTITLE24=No milk today
TTITLE25=Black Is Black
TTITLE26=In the Year 2525
TTITLE27=Fire
TTITLE28=Those were the days my friend
EXTD=
EXTT0=
EXTT1=
EXTT2=
EXTT3=
EXTT4=
EXTT5=
EXTT6=
EXTT7=
EXTT8=
EXTT9=
EXTT10=
EXTT11=
EXTT12=
EXTT13=
EXTT14=
EXTT15=
EXTT16=
EXTT17=
EXTT18=
EXTT19=
EXTT20=
EXTT21=
EXTT22=
EXTT23=
EXTT24=
EXTT25=
EXTT26=
EXTT27=
EXTT28=
PLAYORDER=
